Patient4_TMGait_0pt7_02_left_37_GRF.mot
version=1
nRows=39
nColumns=19
inDegrees=no
endheader
time	F1x	F1y	F1z	M1x	M1y	M1z	F2x	F2y	F2z	M2x	M2y	M2z	EC1x	EC1y	EC1z	EC2x	EC2y	EC2z
42.32	24.8615	-5.6501	-6.081	2.0301	12.5291	3.8487	0.65734	823.487	-108.2137	308.7516	98.5994	856.9443	-0.0592	0.0182	-0.0073	-0.0462	0.0165	0.9585
42.3316	16.4927	-2.3233	-4.0622	0.89051	8.3077	4.2079	-4.4335	817.6427	-102.5018	304.99	97.8839	844.7845	-0.0592	0.0182	-0.0073	-0.0462	0.0165	0.9585
42.3431	9.4884	0.49736	-2.3321	-0.088268	4.7398	4.497	-8.1323	811.2409	-97.5345	301.1852	96.7821	832.0566	-0.0592	0.0182	-0.0073	-0.0462	0.0165	0.9585
42.3547	4.206	2.6744	-0.99904	-0.85438	2.0243	4.7323	-10.1933	804.2816	-93.6252	297.4338	95.3435	819.0649	-0.0592	0.0182	-0.0073	-0.0462	0.0165	0.9585
42.3663	0.58071	4.207	-0.063282	-1.4075	0.14444	4.9118	-10.7373	796.75	-90.7557	293.7517	93.6159	805.917	-0.0592	0.0182	-0.0073	-0.0462	0.0165	0.9585
42.3779	-1.6351	5.1853	0.52522	-1.7757	-1.0177	5.0532	-10.0096	788.717	-88.7721	290.1402	91.6667	792.6855	-0.0592	0.0182	-0.0073	-0.0462	0.0165	0.9585
42.3894	-2.793	5.7229	0.86019	-1.992	-1.6516	5.1516	-8.3513	780.2853	-87.4426	286.6019	89.5486	779.4177	-0.0592	0.0182	-0.0073	-0.0462	0.0165	0.9585
42.401	-3.2198	5.893	1.0096	-2.0779	-1.9144	5.1532	-6.0576	771.645	-86.5705	283.1629	87.3299	766.214	-0.0592	0.0182	-0.0073	-0.0462	0.0165	0.9585
42.4126	-3.176	5.7457	1.0509	-2.0444	-1.9518	5.0034	-3.3875	763.0044	-85.9704	279.8612	85.0552	753.1924	-0.0592	0.0182	-0.0073	-0.0462	0.0165	0.9585
42.4241	-2.8738	5.2517	1.025	-1.8794	-1.8573	4.5742	-0.55626	754.5753	-85.4772	276.7465	82.7474	740.4826	-0.0592	0.0182	-0.0073	-0.0462	0.0165	0.9585
42.4357	-2.4569	4.347	0.97053	-1.556	-1.701	3.7303	2.287	746.5913	-84.9474	273.8825	80.3996	728.2453	-0.0592	0.0182	-0.0073	-0.0462	0.0165	0.9585
42.4473	-2.015	2.9364	0.90607	-1.0385	-1.5181	2.3297	5.0165	739.2296	-84.2613	271.3231	77.9867	716.5997	-0.0592	0.0182	-0.0073	-0.0462	0.0165	0.9585
42.4589	-1.6129	0.91671	0.83555	-0.29455	-1.3266	0.22769	7.5952	732.6513	-83.3501	269.1162	75.4831	705.6526	-0.0592	0.0182	-0.0073	-0.0462	0.0165	0.9585
42.4704	-1.2639	-1.7494	0.74709	0.68227	-1.1191	-2.629	10.025	726.9818	-82.197	267.2953	72.8827	695.4903	-0.0592	0.0182	-0.0073	-0.0462	0.0165	0.9585
42.482	-0.97495	-4.9603	0.61501	1.8482	-0.87569	-6.1263	12.3522	722.2448	-80.8342	265.8577	70.1969	686.107	-0.0592	0.0182	-0.0073	-0.0462	0.0165	0.9585
42.4936	-0.76489	-8.3746	0.41423	3.0726	-0.57467	-9.8906	14.655	718.4174	-79.3263	264.7761	67.45	677.4832	-0.0592	0.0182	-0.0073	-0.0462	0.0165	0.9585
42.5051	-0.64705	-11.2725	0.1059	4.0906	-0.18549	-13.1193	17.0279	715.3664	-77.7379	263.9864	64.6577	669.5034	-0.0592	0.0182	-0.0073	-0.0462	0.0165	0.9585
42.5167	-0.68068	-12.4579	-0.3284	4.4667	0.29166	-14.4819	19.5537	712.8967	-76.1381	263.3926	61.8405	662.0278	-0.0592	0.0182	-0.0073	-0.0462	0.0165	0.9585
42.5283	-0.94655	-10.1543	-0.91629	3.5593	0.85252	-11.9796	22.3233	710.6708	-74.5989	262.8441	59.0206	654.7917	-0.0592	0.0182	-0.0073	-0.0462	0.0165	0.9585
42.5399	-1.5366	-1.9752	-1.6372	0.51119	1.4352	-2.9241	25.3343	708.1494	-73.1848	262.1155	56.2403	647.3761	-0.0592	0.0182	-0.0073	-0.0462	0.0165	0.9585
42.5514	-2.5674	14.9841	-2.4419	-5.717	1.9307	15.9406	28.5585	704.574	-71.9107	260.9	53.5148	639.1835	-0.0592	0.0182	-0.0073	-0.0462	0.0165	0.9585
42.563	-4.1454	43.8213	-3.1735	-16.222	2.1196	48.0852	31.8555	698.8625	-70.7294	258.783	50.8412	629.3618	-0.0592	0.0182	-0.0073	-0.0462	0.0165	0.9585
42.5746	-6.3297	87.1921	-3.5877	-31.9256	1.6921	96.5006	35.0388	689.6585	-69.4858	255.264	48.1503	616.8212	-0.0592	0.0182	-0.0073	-0.0462	0.0165	0.9585
42.5861	-9.107	146.191	-3.2869	-53.1711	0.20206	162.4437	37.8467	675.4449	-67.9252	249.799	45.3255	600.3645	-0.0592	0.0182	-0.0073	-0.0462	0.0165	0.9585
42.5977	-12.2828	218.7951	-1.7253	-79.1616	-2.8981	243.7003	39.9907	654.6151	-65.717	241.8342	42.2039	578.6918	-0.0592	0.0182	-0.0073	-0.0462	0.0165	0.9585
42.6093	-15.899	298.1963	1.8294	-107.3717	-8.4282	332.6614	41.1985	625.8057	-62.541	230.9149	38.6352	550.6988	-0.0592	0.0182	-0.0073	-0.0462	0.0165	0.9585
42.6209	-21.051	373.3219	8.2773	-133.8099	-17.641	416.8312	41.3028	588.2357	-58.2006	216.8124	34.55	515.7154	-0.0592	0.0182	-0.0073	-0.0462	0.0165	0.9585
42.6324	-28.184	437.9158	17.3683	-156.2734	-30.3021	489.0892	40.265	542.1763	-52.7438	199.6698	30.0386	473.9275	-0.0592	0.0182	-0.0073	-0.0462	0.0165	0.9585
42.644	-37.3115	494.2182	27.1161	-175.6098	-44.2999	551.7663	38.1677	489.0243	-46.4602	179.9933	25.3305	426.477	-0.0592	0.0182	-0.0073	-0.0462	0.0165	0.9585
42.6556	-47.1212	545.6995	36.8704	-193.1225	-58.406	608.5523	35.1551	430.4328	-39.9162	158.3765	20.8453	374.7032	-0.0592	0.0182	-0.0073	-0.0462	0.0165	0.9585
42.6671	-56.336	593.8905	45.135	-209.4634	-70.5771	661.0169	31.3954	368.3529	-33.5407	135.5079	16.8547	320.2434	-0.0592	0.0182	-0.0073	-0.0462	0.0165	0.9585
42.6787	-63.4169	638.3207	51.7698	-224.4775	-80.0871	708.4341	27.025	304.9571	-27.6049	112.1696	13.5069	264.9049	-0.0592	0.0182	-0.0073	-0.0462	0.0165	0.9585
42.6903	-67.587	677.0543	56.5505	-237.4822	-86.4517	748.8386	22.1946	242.7433	-22.2421	89.2705	10.8224	210.8057	-0.0592	0.0182	-0.0073	-0.0462	0.0165	0.9585
42.7019	-68.5181	708.4178	59.9415	-247.831	-90.0729	780.3623	17.2114	184.4619	-17.4965	67.812	8.7093	160.266	-0.0592	0.0182	-0.0073	-0.0462	0.0165	0.9585
42.7134	-66.6045	731.5089	62.512	-255.1432	-91.7259	802.428	12.3847	132.5928	-13.403	48.7093	7.0623	115.3783	-0.0592	0.0182	-0.0073	-0.0462	0.0165	0.9585
42.725	-62.3369	746.0506	64.6219	-259.2992	-92.0393	814.8983	8.14	89.0166	-9.9057	32.6571	5.6792	77.6983	-0.0592	0.0182	-0.0073	-0.0462	0.0165	0.9585
42.7366	-56.7751	752.7497	66.7904	-260.5194	-91.9197	818.8724	4.7359	54.565	-6.9892	19.9699	4.4572	47.9089	-0.0592	0.0182	-0.0073	-0.0462	0.0165	0.9585
42.7481	-50.4305	752.95	68.6925	-259.3374	-91.2803	815.907	2.235	29.0832	-4.5402	10.6054	3.2802	25.8504	-0.0592	0.0182	-0.0073	-0.0462	0.0165	0.9585
42.7597	-44.078	748.7097	70.3198	-256.5112	-90.358	808.4116	0.56733	11.7586	-2.5821	4.2545	2.2095	10.8362	-0.0592	0.0182	-0.0073	-0.0462	0.0165	0.9585
